<?xml version="1.0" encoding="utf-8"?>
<svg viewBox="0 0 500 500" xmlns="http://www.w3.org/2000/svg" xmlns:bx="https://boxy-svg.com">
  <g transform="matrix(0.9055050611495972, 0, 0, 0.8610789775848389, 44.21887969970703, 21.437623977661133)" style="">
    <path d="M 84.602 133.197 Q 84.602 132.889 84.883 132.711 Q 85.182 132.521 85.574 132.636 Q 86.009 132.763 86.285 133.197 Q 86.595 133.684 86.546 134.319 Q 86.49 135.029 86.005 135.627 Q 85.467 136.288 84.602 136.564 Q 83.653 136.865 82.638 136.598 Q 81.535 136.308 80.715 135.441 Q 79.83 134.507 79.552 133.197 Q 79.255 131.795 79.743 130.392 Q 80.263 128.898 81.516 127.852 Q 82.844 126.744 84.602 126.464 Q 86.456 126.169 88.249 126.88 Q 90.133 127.628 91.405 129.269 Q 92.737 130.989 93.018 133.197 Q 93.312 135.503 92.377 137.686 Q 91.402 139.959 89.371 141.458 Q 87.26 143.014 84.602 143.297 Q 81.845 143.589 79.272 142.429 Q 76.608 141.229 74.884 138.808 Q 73.102 136.306 72.819 133.197 Q 72.527 129.989 73.912 127.025 Q 75.339 123.971 78.15 122.021 Q 81.043 120.014 84.602 119.731 Q 88.261 119.44 91.616 121.049 Q 95.06 122.702 97.236 125.903 Q 99.468 129.187 99.751 133.197 Q 100.042 137.307 98.208 141.052 Q 96.329 144.887 92.738 147.288 Q 89.063 149.746 84.602 150.03 Q 80.041 150.32 75.905 148.26 Q 71.68 146.156 69.053 142.174 Q 66.371 138.109 66.086 133.197 Q 65.796 128.185 68.081 123.659 Q 70.411 119.043 74.783 116.19 Q 79.239 113.283 84.602 112.998 Q 84.582 112.999 84.602 112.998" style="paint-order: stroke; stroke-width: 2.35301px; stroke-opacity: 0.4; fill: rgba(208, 144, 124, 0.204); stroke: rgba(0, 0, 0, 0.24);" transform="matrix(0.451533, 0, 0, 0.398443, 64.375687, 24.727694)" bx:shape="spiral 84.602 133.197 0 20.199 0 1080 1@0f2610a0"/>
    <g transform="matrix(1, 0, 0, 1, 131.328949, -37.846863)">
      <path style="transform-box: fill-box; transform-origin: 50% 50%; stroke-width: 0px; paint-order: stroke; fill: rgba(208, 144, 124, 0.204); stroke: rgba(0, 0, 0, 0.24);" d="M 230.112 83.167 L 232.884 108.912 L 239.468 108.564 L 240.041 82.045 C 240.041 82.045 235.143 75.901 230.023 83.054" transform="matrix(0.968016, 0.25089, -0.25089, 0.968016, 0, -0.000002)"/>
      <circle style="transform-box: fill-box; transform-origin: 50% 55.2632%; stroke-width: 0px; paint-order: stroke; fill: rgba(208, 144, 124, 0.204); stroke: rgba(0, 0, 0, 0.24);" transform="matrix(0.265656, 0.068853, -0.075054, 0.289582, -718.70752, -267.214081)" cx="949.5" cy="382" r="17.5"/>
    </g>
    <path style="stroke-width: 0px; paint-order: stroke; transform-box: fill-box; transform-origin: 50% 50%; fill: rgba(208, 144, 124, 0.204); stroke: rgba(0, 0, 0, 0.24);" d="M 54.732 193.663 L 57.085 212.848 L 62.676 212.589 L 63.162 192.827 C 63.162 192.827 59.003 188.249 54.656 193.579" transform="matrix(0.920852, -0.389911, 0.389911, 0.920852, 0.000002, -0.000006)"/>
    <circle style="stroke-width: 0px; paint-order: stroke; fill: rgba(208, 144, 124, 0.204); stroke: rgba(0, 0, 0, 0.24);" transform="matrix(0.214573, -0.090855, 0.08692, 0.205279, -170.407776, 224.487793)" cx="949.5" cy="382" r="17.5"/>
    <g style="" transform="matrix(0.609536, 0, 0, 0.647739, 64.571228, 168.104065)">
      <circle style="paint-order: stroke; stroke-width: 0px; fill: rgba(208, 144, 124, 0.204); stroke: rgba(0, 0, 0, 0.24);" transform="matrix(0.448534, 0, 0, 0.471092, -60.474663, -122.811523)" cx="1386.607" cy="508.5" r="32.393"/>
      <path style="transform-box: fill-box; transform-origin: 42.3176% 45.1923%; paint-order: stroke; stroke-width: 2.1154px; stroke-opacity: 0.51; fill: rgba(208, 144, 124, 0.204); stroke: rgba(0, 0, 0, 0.24);" transform="matrix(0.076753, 0.256375, -1.209041, 0.361957, -445.386719, -378.881622)" d="M 992.88 485.25 A 21.5 21.5 0 1 1 992.88 506.75 A 15.733 15.733 0 1 0 992.88 485.25 Z" bx:shape="crescent 1011.5 496 21.5 300 0.7 1@321a5b22"/>
    </g>
    <circle style="stroke-width: 0px; paint-order: stroke; fill: rgba(208, 144, 124, 0.204); stroke: rgba(0, 0, 0, 0.24);" transform="matrix(0.383546, 0, 0, 0.407518, -197.80542, 131.744843)" cx="664" cy="707" r="16"/>
    <path d="M 84.602 133.197 Q 84.602 132.889 84.883 132.711 Q 85.182 132.521 85.574 132.636 Q 86.009 132.763 86.285 133.197 Q 86.595 133.684 86.546 134.319 Q 86.49 135.029 86.005 135.627 Q 85.467 136.288 84.602 136.564 Q 83.653 136.865 82.638 136.598 Q 81.535 136.308 80.715 135.441 Q 79.83 134.507 79.552 133.197 Q 79.255 131.795 79.743 130.392 Q 80.263 128.898 81.516 127.852 Q 82.844 126.744 84.602 126.464 Q 86.456 126.169 88.249 126.88 Q 90.133 127.628 91.405 129.269 Q 92.737 130.989 93.018 133.197 Q 93.312 135.503 92.377 137.686 Q 91.402 139.959 89.371 141.458 Q 87.26 143.014 84.602 143.297 Q 81.845 143.589 79.272 142.429 Q 76.608 141.229 74.884 138.808 Q 73.102 136.306 72.819 133.197 Q 72.527 129.989 73.912 127.025 Q 75.339 123.971 78.15 122.021 Q 81.043 120.014 84.602 119.731 Q 88.261 119.44 91.616 121.049 Q 95.06 122.702 97.236 125.903 Q 99.468 129.187 99.751 133.197 Q 100.042 137.307 98.208 141.052 Q 96.329 144.887 92.738 147.288 Q 89.063 149.746 84.602 150.03 Q 80.041 150.32 75.905 148.26 Q 71.68 146.156 69.053 142.174 Q 66.371 138.109 66.086 133.197 Q 65.796 128.185 68.081 123.659 Q 70.411 119.043 74.783 116.19 Q 79.239 113.283 84.602 112.998 Q 84.582 112.999 84.602 112.998" style="stroke-width: 2.3112px; paint-order: fill; stroke-opacity: 0.44; fill: rgba(208, 144, 124, 0.204); stroke: rgba(0, 0, 0, 0.24);" transform="matrix(0.432788, 0, 0, 0.432564, 380.85199, 393.960571)" bx:shape="spiral 84.602 133.197 0 20.199 0 1080 1@0f2610a0"/>
    <path style="stroke-width: 0px; paint-order: stroke; fill: rgba(208, 144, 124, 0.204); stroke: rgba(0, 0, 0, 0.24);" transform="matrix(0.783042, 0, 0, 0.913488, -442.461151, -325.256744)" d="M 858.206 680 A 9 9 0 1 1 858.206 689 A 6.586 6.586 0 1 0 858.206 680 Z" bx:shape="crescent 866 684.5 9 300 0.7 1@ef612f14"/>
  </g>
</svg>