<?xml version="1.0" encoding="UTF-8"?>
<svg id="Capa_1" data-name="Capa 1" xmlns="http://www.w3.org/2000/svg" viewBox="0 0 371.8 371.62">
  <defs>
    <style>
      .cls-1 {
        fill: #fff;
      }
    </style>
  </defs>
  <path d="M185.9,371.62c-13.56,0-27.18-1.46-40.6-4.42-42-9.31-79.76-33.27-106.32-67.47C12.41,265.53-1.39,223.11,.11,180.29c.59-17.56,2.44-29.84,6.82-45.32C17.8,96.32,41.45,61.71,73.51,37.51,100.33,17.27,133.98,4.13,168.26,.51h0c2.04-.21,10-.41,16.55-.5,43.57-.48,86.67,15.17,121.33,44.12,47.35,39.46,71.98,102.4,64.28,164.25-7.79,62.03-45.84,115.82-101.77,143.89-25.61,12.81-54.04,19.37-82.74,19.37Z"/>
  <path class="cls-1" d="M85.47,291.02l2.58,5.42c3.72,7.9,8.04,12.36,15.41,15.93,5.51,2.69,8.14,3.28,18.7,4.17,6.98,.61,13.17,.68,13.93,.43,1.16-.38,1.37-2.32,1.37-12.18v-11.47l-7.1-.38c-6.09-.3-8.16-.7-10.13-2.76q-2.45-2.33-3.06-36.09v-.4c-.43-21.7-1.05-35.27-1.7-37.21-3.08-9.39-10.57-16.62-21.1-20.37-2.6-.91-5.65-2.27-5.44-3.51,.15-.87,1.47-.87,1.97-.87,2.81,0,15.41-7.08,18.7-10.97,6.46-7.41,6.95-10.47,7.55-46.78,.5-29.05,.78-33.04,2.51-35.62,2.35-3.39,6.71-5.04,13.34-5.04h4.45v-23.1l-10.59,.1c-13.77,0-19.65,1.38-27.36,6.42-5.75,3.73-9.52,8.41-12.24,15.17-1.5,3.8-1.81,9.53-2.22,40.82-.51,32.45-.8,36.98-2.62,40.43-2,4-5.94,6.91-12.4,9.14l-3.57,1.19v18.7l5.23,2.08c3.2,1.25,6.62,3.19,7.78,4.42q4.96,5.34,5.48,44.47l.51,37.88Z"/>
  <path class="cls-1" d="M315.25,227.89c-1.04,0-1.86-.22-2.47-.67-.9-.65-1.33-1.72-1.33-3.29,0-2.21,.43-3.54,2.64-3.8,2.29-.33,2.65-1.19,3.06-13.62,.3-9.27,.31-9.63,3.78-12.47,1.19-1.01,2.24-1.89,2.43-2.24-.19-.13-.71-.31-.98-.4-3.75-1.18-4.92-4.61-5.43-15.95-.5-10-.62-10.04-2.62-10.54-1.28-.31-2.29-1.05-2.85-2.1-.62-1.17-.66-2.64-.1-4.16,.21-.55,.7-.98,1.45-1.26,2.14-.83,5.98-.39,8.75,.99h.01c4.31,2.32,5.36,5.76,5.36,17.55,0,10.08,.17,10.22,2.31,11.91,1.51,1.19,2.69,3.2,2.69,4.59s-1.18,3.41-2.69,4.59c-2.13,1.69-2.31,1.83-2.31,12.01,0,12.75-1.28,16.09-6.85,17.88-1.99,.65-3.59,.98-4.85,.98Z"/>
  <path class="cls-1" d="M168.9,227.36c-.38,0-.8,0-1.26-.02-3.54-.11-5.32-.83-7.35-2.96-2.63-2.63-2.83-3.49-3.14-13.23-.3-12.82-.74-14.06-2.85-14.74-1.18-.38-1.96-1.24-2.21-2.42-.37-1.83,.62-4.08,2.53-5.73,2.22-1.94,2.33-2.5,2.33-11.92,0-15.05,2.54-19.2,11.79-19.3,2.07-.06,3.1-.06,3.68,.56,.54,.58,.48,1.45,.33,3.08-.21,2.55-1.02,3.79-2.69,4.15-2.64,.43-3.1,1.26-3.1,10.81,0,10.29-1.08,13.76-4.79,15.46-1.74,.77-2.18,1.53-2.15,1.67,.02,.03,.23,.17,.84,.17,1.06,0,2.82,1.42,3.89,2.79,1.88,2.4,2.21,4.28,2.21,12.61,0,10.23,.76,11.6,3.8,11.6,.54,0,1.21,.06,1.64,.55,.54,.6,.54,1.63,.36,3.21-.3,3.16-.77,3.66-3.85,3.66Z"/>
  <path class="cls-1" d="M260.65,211.31h-6.8c-.26,0-6.43-.01-7.29-1.09-.41-.68-2.67-7.68-4.69-14.47-2.19-7.27-4.01-12.46-4.63-13.66-.35,.46-1.01,1.73-1.71,4.06-.42,1.37-1.09,3.58-1.85,6.07-.85,2.81-1.81,5.98-2.66,8.73l-3,9.84-6.95,.32c-5.2,.22-7.09-.12-7.5-1.34-1.04-3.13-12.59-47.41-11.84-48.54,.6-.8,3.66-.86,5.46-.72l4.95,.32,4.69,18.05c2.06,8,4.01,14.79,4.8,17.17,.85-2.08,2.85-7.95,5.44-16.68l5.5-18.53,4.55-.32c.41-.03,.77-.08,1.1-.13,3.52-.47,3.61-.18,8.13,15.35,.47,1.63,1,3.44,1.58,5.44,2.97,10.25,4.23,14.59,4.77,15.83,.46-1.29,2.02-6.95,4.26-15.91l.54-2.11c4.67-18.34,4.74-18.72,9.87-18.67h.58c3.39,0,5,.33,5,2.2,0,1.01-2.11,9.57-4.52,18.33l-1.66,6.27c-1.93,7.28-3.74,14.16-4.44,17.02l-1.69,7.18Z"/>
  <path class="cls-1" d="M183.35,211.31c-6.16,0-12.4-1.41-12.4-4.1,0-.93,.74-2.8,1.68-4.27,1.65-2.42,2.44-2.64,7.09-2.03,3.75,.48,4.94,.3,6.4-.98,1.71-1.53,1.83-2.81,1.83-19.62,0-8.12,.14-17.84,.81-19.09h-.01c.66-.89,4.74-.91,5.2-.91h5.42l.32,6.33c0,8.59-.75,34.22-2.49,37.69-2.3,4.5-7.22,6.98-13.85,6.98Z"/>
  <path class="cls-1" d="M293.02,211.02c-.16,0-.31,0-.47,0-7.93-.12-14.64-3.07-17.52-7.71-1.54-2.57-2.38-4.44-1.8-5.88,.53-1.31,2.1-1.97,4.29-2.57,3.77-.99,4.76-1.03,5.87,.94,2.5,4.42,5.12,6.14,9.36,6.14,4.55,0,6.79-1.26,7.72-4.34,.9-3.06-3.1-6.18-11.27-8.78-9.83-3.18-15.25-8.07-15.25-13.78,0-7.91,4.33-13.02,12.88-15.19,3.8-.95,11.24-.16,15.32,1.62,4,1.58,9.06,7.44,8.6,9.95-.29,1.29-2.42,2.43-4.38,2.9-3.56,.94-4.22,.72-7.08-2.35-2.43-2.53-3.6-3.04-6.93-3.04-4.56,0-7.4,1.95-7.4,5.1,0,2.58,2.5,4.14,11.15,6.92,8.36,2.65,12.12,5.12,14.39,9.44,1.96,3.72,1.5,9.91-1.02,13.8-2.8,4.22-9.07,6.8-16.45,6.8Z"/>
</svg>