<?xml version="1.0" standalone="no"?>
<!DOCTYPE svg PUBLIC "-//W3C//DTD SVG 20010904//EN"
 "http://www.w3.org/TR/2001/REC-SVG-20010904/DTD/svg10.dtd">
<svg version="1.0" xmlns="http://www.w3.org/2000/svg"
 viewBox="0 0 702.000000 580.000000"
 preserveAspectRatio="xMidYMid meet">

<g transform="translate(0.000000,580.000000) scale(0.100000,-0.100000)"
fill="#000000" stroke="none">
<path d="M3175 5293 c-371 -46 -590 -111 -874 -259 -459 -239 -812 -599 -1037
-1059 -156 -320 -229 -614 -241 -971 -9 -270 22 -506 102 -768 164 -541 541
-1027 1026 -1322 522 -318 1122 -424 1714 -302 462 94 866 315 1205 657 193
195 320 371 439 608 255 514 317 1084 176 1639 -205 804 -819 1444 -1616 1685
-240 72 -437 100 -694 98 -93 -1 -183 -4 -200 -6z m-497 -944 l2 -167 -84 -3
c-72 -3 -88 -7 -110 -28 -57 -54 -59 -62 -67 -491 -8 -433 -12 -466 -69 -559
-35 -57 -107 -113 -183 -141 -84 -32 -84 -34 -6 -68 139 -62 207 -136 240
-262 7 -29 14 -197 18 -455 5 -365 8 -414 24 -442 26 -48 63 -63 157 -63 l80
0 0 -170 0 -170 -139 0 c-187 0 -306 29 -376 90 -102 91 -114 104 -146 172
l-34 73 -6 460 c-4 270 -10 476 -17 498 -18 66 -60 107 -141 138 -31 11 -61
25 -68 31 -18 15 -18 252 0 265 6 5 39 20 72 33 67 25 115 68 135 120 11 27
15 142 20 505 5 463 6 471 29 529 26 65 85 135 144 173 138 87 196 102 387
100 l135 -2 3 -166z m450 -1016 c3 -51 3 -52 -30 -61 l-33 -8 -6 -130 c-3 -71
-9 -136 -13 -145 -4 -9 -21 -26 -37 -38 l-30 -23 37 -32 38 -33 5 -139 6 -139
30 -5 c28 -5 30 -8 33 -58 l3 -52 -56 0 c-63 0 -111 17 -140 49 -17 20 -20 42
-25 172 l-5 149 -34 30 c-29 27 -32 36 -27 63 3 18 18 42 34 54 27 23 27 24
32 171 4 118 9 154 23 175 20 31 93 57 152 54 l40 -2 3 -52z m1909 32 c50 -33
58 -59 61 -212 l4 -143 29 -21 c23 -16 29 -28 29 -59 0 -23 -6 -45 -15 -52
-46 -38 -45 -36 -45 -161 0 -67 -4 -137 -10 -156 -18 -63 -64 -91 -149 -91
l-61 0 0 55 c0 51 2 55 23 55 41 0 47 17 47 137 0 124 13 173 50 193 22 12 22
12 -11 46 l-34 35 -5 136 -5 137 -32 8 c-31 8 -33 11 -33 57 0 26 3 51 8 55
11 12 123 -2 149 -19z m-293 -25 c80 -27 99 -40 130 -94 43 -73 35 -86 -61
-104 -58 -10 -67 -7 -77 26 -17 53 -116 70 -157 26 -22 -23 -22 -27 -9 -50 11
-19 41 -34 125 -63 61 -20 123 -46 138 -56 42 -27 67 -84 67 -153 0 -50 -5
-66 -30 -100 -39 -54 -62 -68 -138 -83 -165 -32 -326 39 -347 153 -7 35 -5 37
21 43 16 4 42 11 58 16 51 16 75 11 82 -16 16 -66 113 -97 168 -54 58 46 11
101 -121 141 -70 21 -141 58 -168 89 -28 29 -33 135 -10 183 47 98 195 141
329 96z m-1284 -2 c0 -9 3 -9 12 0 16 16 129 15 151 0 11 -9 28 -60 47 -143
47 -200 65 -266 74 -268 4 -1 18 36 31 83 46 172 89 315 98 328 6 7 33 12 67
12 34 0 61 -5 67 -12 5 -7 29 -83 52 -168 23 -85 50 -179 59 -208 l16 -54 13
39 c7 21 17 47 23 58 5 11 19 63 30 115 11 52 29 125 41 163 l21 67 69 0 c49
0 71 -4 75 -13 3 -8 -16 -94 -42 -193 -25 -98 -57 -226 -70 -284 -13 -58 -29
-120 -35 -137 l-11 -33 -98 0 -98 0 -30 98 c-17 53 -41 133 -54 177 l-24 80
-23 -70 c-12 -39 -29 -84 -37 -102 -8 -17 -14 -34 -14 -38 0 -4 -9 -38 -21
-76 l-21 -69 -94 0 c-67 0 -96 4 -98 13 -2 6 -16 50 -30 97 -30 100 -65 231
-103 388 -15 61 -29 112 -32 112 -3 0 -6 -109 -6 -243 0 -206 -3 -247 -17
-272 -46 -84 -134 -119 -250 -98 -124 22 -136 35 -95 108 24 43 32 45 117 30
27 -5 42 -2 60 13 l25 20 3 234 c1 128 4 239 7 246 6 17 145 17 145 0z"/>
</g>
</svg>
