<?xml version="1.0" standalone="no"?>
<!DOCTYPE svg PUBLIC "-//W3C//DTD SVG 20010904//EN"
 "http://www.w3.org/TR/2001/REC-SVG-20010904/DTD/svg10.dtd">
<svg version="1.0" xmlns="http://www.w3.org/2000/svg"
 width="550.000000pt" height="454.000000pt" viewBox="0 0 550.000000 454.000000"
 preserveAspectRatio="xMidYMid meet">

<g transform="translate(0.000000,454.000000) scale(0.100000,-0.100000)"
fill="#000000" stroke="none">
<path d="M2480 4143 c-341 -36 -680 -169 -945 -369 -318 -240 -556 -588 -664
-972 -43 -152 -62 -274 -68 -452 -31 -883 582 -1672 1448 -1864 417 -92 854
-39 1230 149 560 281 937 814 1015 1435 77 618 -167 1243 -641 1638 -346 289
-775 445 -1210 440 -71 -1 -146 -3 -165 -5z m-390 -743 l0 -120 -49 0 c-64 0
-106 -16 -128 -48 -16 -24 -19 -60 -24 -352 -6 -362 -11 -394 -76 -469 -32
-38 -158 -111 -189 -111 -30 0 -12 -17 36 -34 106 -38 181 -111 212 -206 7
-21 13 -166 17 -372 6 -333 6 -338 29 -360 18 -19 36 -23 97 -26 l75 -4 0
-119 c0 -102 -2 -121 -17 -126 -9 -3 -72 -2 -140 4 -106 9 -132 15 -187 42
-74 36 -118 82 -155 161 l-26 55 -5 370 c-5 388 -5 390 -52 442 -11 12 -44 31
-74 43 l-54 22 0 97 0 97 38 13 c62 22 99 50 118 89 17 33 20 73 25 402 4 314
7 371 22 410 27 69 64 116 121 154 76 51 133 65 269 65 l117 1 0 -120z m348
-792 c-2 -24 -9 -34 -23 -37 -31 -5 -35 -19 -35 -113 0 -101 -10 -134 -45
-150 -27 -12 -33 -28 -11 -28 8 0 24 -12 35 -26 18 -23 21 -41 21 -123 0 -100
7 -121 43 -121 15 0 18 -6 15 -32 -3 -32 -5 -33 -46 -32 -33 1 -50 7 -70 28
-25 25 -27 33 -30 129 -3 127 -7 144 -32 152 -28 9 -25 47 5 73 24 21 25 28
25 123 0 147 24 187 113 188 37 1 38 0 35 -31z m1491 18 c41 -22 51 -55 51
-171 0 -99 1 -104 25 -123 14 -11 25 -30 25 -42 0 -12 -11 -31 -25 -42 -24
-19 -25 -24 -25 -124 0 -124 -12 -157 -65 -174 -55 -18 -80 -11 -80 25 0 23 5
31 22 33 28 4 31 19 35 141 3 92 3 94 36 121 32 27 33 28 13 35 -35 11 -46 45
-51 155 -5 101 -6 104 -30 110 -25 6 -36 29 -26 56 7 18 59 18 95 0z m-194
-31 c38 -15 87 -72 83 -94 -2 -9 -19 -20 -40 -25 -34 -9 -39 -7 -66 22 -25 26
-38 32 -73 32 -49 0 -79 -22 -79 -56 0 -29 25 -45 115 -74 82 -26 119 -50 141
-92 19 -36 14 -96 -10 -133 -61 -92 -277 -86 -336 9 -30 50 -26 64 22 77 38
10 44 9 53 -7 26 -46 54 -64 98 -64 48 0 72 14 82 47 10 34 -31 67 -116 94
-96 31 -149 79 -149 133 0 77 42 126 125 147 36 9 109 2 150 -16z m-1031 -46
c10 -90 -4 -338 -21 -372 -22 -43 -69 -67 -134 -67 -66 0 -119 16 -119 36 0 8
7 26 16 40 15 22 21 24 66 18 39 -5 52 -3 68 11 19 17 20 32 20 200 0 100 3
185 7 188 3 4 25 7 48 7 l42 0 7 -61z m175 -121 c25 -97 49 -179 52 -182 3 -3
30 76 60 177 l54 182 42 3 c47 4 36 26 103 -203 49 -169 49 -169 55 -163 3 2
23 76 45 164 54 212 50 204 105 204 36 0 45 -4 45 -17 0 -9 -20 -91 -45 -182
-24 -91 -52 -196 -61 -233 l-16 -68 -64 0 c-34 0 -65 4 -69 9 -3 5 -24 69 -46
143 -22 73 -44 137 -49 141 -4 5 -15 -15 -24 -45 -9 -29 -29 -96 -45 -148
l-29 -95 -66 -3 c-48 -2 -67 1 -70 10 -23 69 -123 475 -119 481 3 4 25 7 50 5
l46 -3 46 -177z"/>
</g>
</svg>
